<svg width="24" height="24" viewBox="0 0 24 24" fill="none" xmlns="http://www.w3.org/2000/svg">
<path opacity="0.5" d="M2 11.9999C2 7.28583 2 4.92881 3.46447 3.46435C4.92893 1.99988 7.28595 1.99988 12 1.99988C16.714 1.99988 19.0711 1.99988 20.5355 3.46435C22 4.92881 22 7.28583 22 11.9999C22 16.7139 22 19.071 20.5355 20.5354C19.0711 21.9999 16.714 21.9999 12 21.9999C7.28595 21.9999 4.92893 21.9999 3.46447 20.5354C2 19.071 2 16.7139 2 11.9999Z" stroke="white" stroke-width="1.03239"/>
<path d="M14.0002 7.99988V7.24988C13.586 7.24988 13.2502 7.58567 13.2502 7.99988H14.0002ZM13.2502 15.9999C13.2502 16.4141 13.586 16.7499 14.0002 16.7499C14.4144 16.7499 14.7502 16.4141 14.7502 15.9999H13.2502ZM8.5002 7.99988L9.21606 7.77617C9.11821 7.46307 8.82824 7.24988 8.5002 7.24988C8.17216 7.24988 7.88219 7.46307 7.78434 7.77617L8.5002 7.99988ZM5.28434 15.7762C5.16079 16.1716 5.38114 16.5922 5.77649 16.7158C6.17185 16.8393 6.59251 16.619 6.71606 16.2236L5.28434 15.7762ZM10.2843 16.2236C10.4079 16.619 10.8285 16.8393 11.2239 16.7158C11.6193 16.5922 11.8396 16.1716 11.7161 15.7762L10.2843 16.2236ZM14.0002 11.9999H13.2502V12.7499H14.0002V11.9999ZM17.3642 16.3974C17.5837 16.7487 18.0464 16.8554 18.3977 16.6359C18.749 16.4164 18.8557 15.9537 18.6362 15.6024L17.3642 16.3974ZM7.78434 7.77617L6.15934 12.9762L7.59106 13.4236L9.21606 8.22359L7.78434 7.77617ZM6.15934 12.9762L5.28434 15.7762L6.71606 16.2236L7.59106 13.4236L6.15934 12.9762ZM7.78434 8.22359L9.40934 13.4236L10.8411 12.9762L9.21606 7.77617L7.78434 8.22359ZM9.40934 13.4236L10.2843 16.2236L11.7161 15.7762L10.8411 12.9762L9.40934 13.4236ZM6.8752 13.9499H10.1252V12.4499H6.8752V13.9499ZM14.0002 8.74988H16.0002V7.24988H14.0002V8.74988ZM14.7502 11.9999V7.99988H13.2502V11.9999H14.7502ZM17.2502 9.99988C17.2502 10.6903 16.6906 11.2499 16.0002 11.2499V12.7499C17.519 12.7499 18.7502 11.5187 18.7502 9.99988H17.2502ZM16.0002 8.74988C16.6906 8.74988 17.2502 9.30952 17.2502 9.99988H18.7502C18.7502 8.4811 17.519 7.24988 16.0002 7.24988V8.74988ZM13.2502 7.99988V15.9999H14.7502V7.99988H13.2502ZM16.0002 11.2499H15.5002V12.7499H16.0002V11.2499ZM15.5002 11.2499H14.0002V12.7499H15.5002V11.2499ZM14.8642 12.3974L17.3642 16.3974L18.6362 15.6024L16.1362 11.6024L14.8642 12.3974Z" fill="white"/>
</svg>
