<svg width="24" height="24" viewBox="0 0 24 24" fill="none" xmlns="http://www.w3.org/2000/svg">
<path d="M21.5498 6.51312L12.4684 1.33762C12.2976 1.24029 12.2122 1.19164 12.1217 1.17257C12.0415 1.15569 11.9589 1.15569 11.8787 1.17257C11.7882 1.19164 11.7029 1.24029 11.532 1.33762L2.45061 6.51312M21.5498 6.51312V16.8319C21.5498 17.038 21.5498 17.1409 21.52 17.2329C21.4936 17.3143 21.4504 17.389 21.3934 17.4522C21.3289 17.5237 21.2402 17.5742 21.063 17.6752L12.0002 22.8401M21.5498 6.51312L12.0002 11.3507M2.45061 6.51312V16.8319C2.45061 17.038 2.45061 17.1409 2.48046 17.2329C2.50684 17.3143 2.55005 17.389 2.60711 17.4522C2.67157 17.5237 2.76014 17.5742 2.93741 17.6752L12.0002 22.8401M2.45061 6.51312L12.0002 11.3507M12.0002 22.8401V11.3507" stroke="white" stroke-width="1.03239" stroke-linecap="round" stroke-linejoin="round"/>
</svg>
