<svg width="24" height="24" viewBox="0 0 24 24" fill="none" xmlns="http://www.w3.org/2000/svg">
<path fill-rule="evenodd" clip-rule="evenodd" d="M7.22499 8.41888C6.56607 8.41888 6.03129 7.8841 6.03129 7.22518C6.03129 6.56625 6.56607 6.03148 7.22499 6.03148C7.88391 6.03148 8.41869 6.56625 8.41869 7.22518C8.41869 7.8841 7.88391 8.41888 7.22499 8.41888ZM7.22499 4.83778C5.90655 4.83778 4.83759 5.90673 4.83759 7.22518C4.83759 8.54362 5.90655 9.61257 7.22499 9.61257C8.54343 9.61257 9.61239 8.54362 9.61239 7.22518C9.61239 5.90673 8.54343 4.83778 7.22499 4.83778ZM20.3557 12.6732L16.7746 9.01572L10.8413 15.0505L8.41869 12.5968L3.64389 16.9759V4.83778C3.64389 4.17886 4.17867 3.64408 4.83759 3.64408H19.162C19.8209 3.64408 20.3557 4.17886 20.3557 4.83778V12.6732ZM20.3557 19.1622C20.3557 19.8211 19.8209 20.3559 19.162 20.3559H16.0775L11.6799 15.9004L16.7746 10.8057L20.3557 14.3868V19.1622ZM4.83759 20.3559C4.17867 20.3559 3.64389 19.8211 3.64389 19.1622V18.6017L8.38587 14.3545L14.3878 20.3559H4.83759ZM19.162 2.45038H4.83759C3.51915 2.45038 2.4502 3.51934 2.4502 4.83778V19.1622C2.4502 20.4806 3.51915 21.5496 4.83759 21.5496H19.162C20.4804 21.5496 21.5494 20.4806 21.5494 19.1622V4.83778C21.5494 3.51934 20.4804 2.45038 19.162 2.45038Z" fill="white"/>
</svg>
