<svg width="24" height="24" viewBox="0 0 24 24" fill="none" xmlns="http://www.w3.org/2000/svg">
<path d="M17.2623 13.6002L18.263 11.1341C18.5392 10.4535 19.2628 10.0002 20.0731 10.0002C21.3873 10.0002 22.3153 11.1506 21.8997 12.2645L20.7803 15.2651C20.5852 15.7881 20.4876 16.0496 20.3588 16.2719C19.8348 17.1758 18.8608 17.803 17.7354 17.9613C17.4587 18.0002 17.1502 18.0002 16.5332 18.0002H16H6.88633C6.82438 18.0002 6.7934 18.0002 6.76531 17.9998C5.26517 17.9788 3.93869 17.1245 3.44197 15.8596C3.43268 15.8359 3.42288 15.8097 3.4033 15.7572L2.10028 12.2645C1.68469 11.1506 2.61268 10.0002 3.92689 10.0002C4.7372 10.0002 5.46079 10.4535 5.73699 11.1341L6.83511 13.8402C6.93505 14.0865 6.98502 14.2096 7.05744 14.3103C7.22656 14.5454 7.49217 14.7118 7.79716 14.7737C7.92777 14.8002 8.07437 14.8002 8.36757 14.8002H15.3467C15.9158 14.8002 16.2004 14.8002 16.4383 14.7021C16.5683 14.6486 16.6864 14.5746 16.787 14.4837C16.9713 14.3172 17.0683 14.0782 17.2623 13.6002Z" stroke="white" stroke-width="1.03239" stroke-linecap="round"/>
<path d="M12 3.25018C11.5858 3.25018 11.25 3.58597 11.25 4.00018C11.25 4.41439 11.5858 4.75018 12 4.75018V3.25018ZM8.11811 4.84836C8.52716 4.78312 8.80587 4.39864 8.74064 3.9896C8.67541 3.58056 8.29093 3.30184 7.88189 3.36707L8.11811 4.84836ZM6.75 12.0002V8.57161H5.25V12.0002H6.75ZM17.25 8.57161V12.0002H18.75V8.57161H17.25ZM13.2 4.75018C14.3516 4.75018 15.1434 4.75163 15.7382 4.82779C16.315 4.90165 16.5921 5.03396 16.7798 5.21275L17.8143 4.12655C17.2991 3.63587 16.659 3.43344 15.9287 3.33994C15.2164 3.24873 14.3112 3.25018 13.2 3.25018V4.75018ZM18.75 8.57161C18.75 7.51634 18.7518 6.64573 18.6548 5.95872C18.5542 5.24623 18.3347 4.62213 17.8143 4.12655L16.7798 5.21275C16.9624 5.38664 17.0943 5.63602 17.1695 6.1684C17.2482 6.72625 17.25 7.47188 17.25 8.57161H18.75ZM6.75 8.57161C6.75 7.47188 6.75175 6.72625 6.8305 6.1684C6.90566 5.63602 7.0376 5.38664 7.22019 5.21275L6.1857 4.12655C5.66534 4.62213 5.44581 5.24623 5.34523 5.95872C5.24825 6.64573 5.25 7.51634 5.25 8.57161H6.75ZM12 4.75018H13.2V3.25018H12V4.75018ZM7.88189 3.36707C7.22943 3.47113 6.65542 3.6792 6.1857 4.12655L7.22019 5.21275C7.39213 5.049 7.63827 4.92488 8.11811 4.84836L7.88189 3.36707Z" fill="white"/>
<path d="M18 20.0002V18.0002M6 20.0002V18.6669" stroke="white" stroke-width="1.03239" stroke-linecap="round"/>
</svg>
