<svg xmlns="http://www.w3.org/2000/svg" width="77" height="69" viewBox="0 0 77 69" fill="none">
<g clip-path="url(#clip0_36_5)">
<path d="M71.3648 45.1052C70.9091 43.246 69.7331 41.5386 67.8848 40.2986C67.8066 40.246 67.7477 40.1689 67.717 40.0793C67.6863 39.9897 67.6856 39.8924 67.7148 39.8023C67.7675 39.6445 67.8111 39.4805 67.8442 39.3106C67.8773 39.1512 67.9013 38.9842 67.9134 38.8127L67.9299 38.5077L67.8938 37.9886C67.8855 37.9141 67.897 37.8387 67.9269 37.7701C68.0201 37.55 68.2728 37.4483 68.4909 37.5424C71.7167 38.9402 74.1245 41.0241 75.5397 43.4008C76.648 45.26 77.1488 47.3029 76.9624 49.3396L76.9609 49.3518C76.7699 51.3916 75.8916 53.4223 74.2448 55.2542C72.007 57.7417 68.342 59.8726 63.0467 61.1672L62.7911 61.2294C59.8088 61.9595 56.4942 62.7699 52.957 63.2101L52.8863 63.2161C52.7723 63.2161 52.6629 63.1704 52.5822 63.089C52.5015 63.0076 52.4562 62.8972 52.4562 62.7821V59.009C52.4566 58.9027 52.4955 58.8002 52.5655 58.7208C52.6356 58.6414 52.7321 58.5906 52.8367 58.578C54.4023 58.3943 55.9092 58.15 57.3499 57.8707C58.7967 57.5915 60.1758 57.2758 61.4827 56.9495C65.7387 55.8886 68.5946 53.8382 70.1527 51.4705C70.8234 50.4521 71.2535 49.3745 71.452 48.297C71.6491 47.2209 71.6175 46.1388 71.3648 45.1052ZM14.9668 7.8255L38.0533 0.0669291C38.33 -0.0271694 38.6173 -0.0180631 38.8729 0.0714823V0.0669291L62.2662 8.15333C62.5405 8.24642 62.7757 8.43002 62.9339 8.67452C63.0922 8.91903 63.1642 9.21019 63.1385 9.50106C63.1415 9.5299 63.1415 9.56177 63.1415 9.59516V38.066H63.1385C63.1385 38.5411 62.8783 38.9994 62.4286 39.2286L39.2023 51.1397C39.0003 51.2626 38.7689 51.3277 38.533 51.3278C38.2729 51.3278 38.0338 51.2504 37.8307 51.1184L14.5518 38.8643C14.3428 38.754 14.1677 38.588 14.0455 38.3844C13.9233 38.1808 13.8586 37.9474 13.8585 37.7094H13.8539V9.12012C13.8539 8.45991 14.3367 7.91657 14.9668 7.8255ZM43.6448 40.0876L44.2283 23.6128L50.9132 21.4106C53.4864 20.5622 55.1888 20.5971 56.0671 21.4895C56.9348 22.3743 57.3108 24.2062 57.198 26.9867C57.0882 29.7626 56.5544 31.9193 55.5919 33.4689C54.6203 35.0321 52.8743 36.3298 50.3101 37.3739L43.6448 40.0876ZM50.8275 25.4917L48.8935 26.1671L48.6017 34.0243L50.5327 33.2776C51.1614 33.0333 51.6185 32.7798 51.9043 32.5097C52.1915 32.2425 52.3449 31.8221 52.3675 31.2484L52.5615 26.2111C52.5825 25.6359 52.4592 25.3172 52.1825 25.2565C51.9088 25.1927 51.4561 25.2701 50.8275 25.4917ZM28.2538 27.3995L28.3636 25.8484C27.8824 25.5008 27.1034 25.0303 26.0266 24.4354C24.9618 23.848 23.6354 23.288 22.0578 22.7538L21.6923 18.9777C23.6293 19.4057 25.5122 20.1038 27.341 21.0797C28.9351 21.9327 30.0946 22.6536 30.812 23.2379C31.5324 23.8268 32.0587 24.3519 32.3911 24.8179C33.122 25.8696 33.4393 27.0383 33.3446 28.3192C33.2243 29.9417 32.4392 30.7157 30.997 30.6368L30.988 30.7582C32.5986 32.3579 33.3446 34.038 33.2137 35.7834C33.1506 36.6379 32.9566 37.2844 32.6332 37.7245C32.3114 38.1601 31.9279 38.4212 31.4872 38.4986C31.0481 38.579 30.4826 38.5107 29.7923 38.2952C28.7712 37.9659 27.3726 37.2632 25.6055 36.1992C23.8624 35.149 22.1555 33.9136 20.4817 32.493L21.384 29.0705C22.8247 30.2801 24.0715 31.1953 25.1092 31.8009C26.1589 32.4171 27.0688 32.8982 27.8343 33.2458L27.9425 31.728L23.8594 28.9567L24.0955 25.5631L28.2538 27.3995ZM37.2382 47.872V20.5956L16.4437 11.081V36.9247L37.2382 47.872ZM60.5502 11.3921L39.8279 20.6077V47.8963L60.5502 37.2677V11.3921ZM38.4473 2.67589L18.7792 9.28706L38.5406 18.3311L58.3019 9.54204L38.4473 2.67589ZM0.577463 43.4524C1.62117 41.3853 4.16127 39.4244 8.6399 37.7063C8.69856 37.682 8.76323 37.6699 8.8309 37.6745C9.06701 37.6912 9.24598 37.8976 9.23094 38.1358C9.22643 38.2163 9.23696 38.3726 9.24598 38.4561C9.26703 38.7399 9.31967 39.0207 9.39787 39.2893C9.47307 39.5534 9.57684 39.8129 9.70617 40.0633L9.73324 40.1119C9.84453 40.3198 9.77084 40.5809 9.56631 40.6978C7.80975 41.6994 6.7901 42.7057 6.37201 43.6998C5.83362 44.9792 6.32539 46.289 7.5225 47.5776C8.80383 48.9541 10.8672 50.2928 13.3592 51.5358C21.5539 55.6291 34.2469 58.6493 39.1903 58.7859V54.5788C39.1918 54.4771 39.2263 54.3754 39.2985 54.2935C39.3735 54.2074 39.4792 54.1549 39.5925 54.1472C39.7057 54.1395 39.8174 54.1774 39.9031 54.2525C42.4883 56.5442 45.3097 58.8299 47.7324 61.275C47.7718 61.3156 47.8029 61.3637 47.8238 61.4164C47.8447 61.4691 47.8551 61.5255 47.8544 61.5824C47.8537 61.6392 47.8419 61.6953 47.8197 61.7475C47.7975 61.7997 47.7653 61.847 47.7249 61.8866C45.248 64.3043 42.5094 66.5794 39.9166 68.8802C39.8399 68.9546 39.7347 69.0002 39.6204 69.0002C39.3828 69.0002 39.1903 68.8044 39.1903 68.5646V64.658C30.3623 64.8386 15.9519 60.5358 7.33 54.9795C4.61996 53.2341 2.46637 51.3536 1.21963 49.4413C-0.0797437 47.4486 -0.416619 45.4179 0.577463 43.4524Z" fill="#4C4C4C"/>
</g>
<defs>
<clipPath id="clip0_36_5">
<rect width="77" height="69" fill="white"/>
</clipPath>
</defs>
</svg>