<svg width="21" height="20" viewBox="0 0 21 20" fill="none" xmlns="http://www.w3.org/2000/svg">
<path d="M2.85254 7.5V12.5H6.18587L10.3525 16.6667V3.33333L6.18587 7.5H2.85254ZM8.68587 7.35833V12.6417L6.87754 10.8333H4.51921V9.16667H6.87754L8.68587 7.35833ZM14.1025 10C14.1025 8.525 13.2525 7.25833 12.0192 6.64167V13.35C13.2525 12.7417 14.1025 11.475 14.1025 10ZM12.0192 2.69167V4.40833C14.4275 5.125 16.1859 7.35833 16.1859 10C16.1859 12.6417 14.4275 14.875 12.0192 15.5917V17.3083C15.3609 16.55 17.8525 13.5667 17.8525 10C17.8525 6.43333 15.3609 3.45 12.0192 2.69167Z" fill="black"/>
</svg>