<svg width="17" height="16" viewBox="0 0 17 16" fill="none" xmlns="http://www.w3.org/2000/svg">
<path d="M12.5889 0.910155C12.731 0.673368 13.0381 0.596583 13.2749 0.738655L13.0176 1.1674C13.2749 0.738655 13.2749 0.738655 13.2749 0.738655L13.2758 0.739215L13.2768 0.739848L13.2793 0.741348L13.2857 0.745295C13.2906 0.748348 13.2968 0.752241 13.3041 0.756981C13.3188 0.766468 13.3382 0.779388 13.3616 0.795808C13.4085 0.828621 13.4718 0.875621 13.546 0.937461C13.6941 1.06085 13.8878 1.24518 14.0806 1.49588C14.4692 2.00104 14.851 2.7723 14.851 3.83407C14.851 4.89584 14.4692 5.6671 14.0806 6.17226C13.8878 6.42296 13.6941 6.60729 13.546 6.73066C13.4718 6.79253 13.4085 6.83953 13.3616 6.87233C13.3382 6.88873 13.3188 6.90166 13.3041 6.91113C13.3004 6.91353 13.2971 6.91566 13.294 6.91759C13.291 6.91959 13.2882 6.92133 13.2857 6.92286L13.2793 6.92679L13.2768 6.92826L13.2758 6.92893C13.2758 6.92893 13.2749 6.92946 13.0176 6.50073L13.2749 6.92946C13.0381 7.07153 12.731 6.99479 12.5889 6.75799C12.4474 6.52219 12.523 6.21665 12.7574 6.07379L12.7611 6.07143C12.766 6.06829 12.7752 6.0622 12.7882 6.0531C12.8142 6.03487 12.8551 6.00479 12.9059 5.96246C13.0078 5.87752 13.1475 5.74518 13.288 5.56255C13.5661 5.20104 13.851 4.63897 13.851 3.83407C13.851 3.02917 13.5661 2.4671 13.288 2.10559C13.1475 1.92296 13.0078 1.79062 12.9059 1.70568C12.8551 1.66335 12.8142 1.63327 12.7882 1.61504C12.7752 1.60594 12.766 1.59985 12.7611 1.5967L12.7574 1.59435C12.523 1.45149 12.4474 1.14595 12.5889 0.910155Z" fill="#1C274C"/>
<path d="M7.01823 6.50066C8.49096 6.50066 9.6849 5.30675 9.6849 3.83399C9.6849 2.36123 8.49096 1.16733 7.01823 1.16733C5.54547 1.16733 4.35156 2.36123 4.35156 3.83399C4.35156 5.30675 5.54547 6.50066 7.01823 6.50066Z" fill="#1C274C"/>
<path d="M11.9409 2.07182C11.7041 1.92974 11.397 2.00653 11.2549 2.24332L11.4204 2.92565L11.4256 2.92919C11.4334 2.93466 11.4482 2.94547 11.4677 2.96176C11.5072 2.99462 11.5635 3.04779 11.6207 3.12209C11.7321 3.26693 11.8503 3.49567 11.8503 3.8339C11.8503 4.17213 11.7321 4.40087 11.6207 4.54571C11.5635 4.62001 11.5072 4.67318 11.4677 4.70604C11.4482 4.72233 11.4334 4.73314 11.4256 4.7386L11.4204 4.74215C11.1883 4.88578 11.1141 5.1897 11.2549 5.42448C11.397 5.66127 11.7041 5.73805 11.9409 5.59598L11.6837 5.16723C11.9409 5.59598 11.9409 5.59598 11.9409 5.59598L11.9418 5.59544L11.9428 5.59486L11.9449 5.59358L11.9499 5.59052L11.9627 5.58237C11.9725 5.57604 11.9847 5.56788 11.9991 5.55784C12.0277 5.53778 12.065 5.51006 12.1079 5.47426C12.1935 5.40295 12.3038 5.29778 12.4133 5.15542C12.6352 4.86693 12.8503 4.429 12.8503 3.8339C12.8503 3.2388 12.6352 2.80087 12.4133 2.51238C12.3038 2.37001 12.1935 2.26485 12.1079 2.19354C12.065 2.15774 12.0277 2.13001 11.9991 2.10996C11.9847 2.09992 11.9725 2.09176 11.9627 2.08542L11.9499 2.07728L11.9449 2.07422L11.9428 2.07294L11.9418 2.07236C11.9418 2.07236 11.9409 2.07182 11.6837 2.50056L11.9409 2.07182Z" fill="#1C274C"/>
<path opacity="0.5" d="M1.68359 11.5005C1.68359 13.1574 1.68359 14.5005 7.01693 14.5005C12.3503 14.5005 12.3503 13.1574 12.3503 11.5005C12.3503 9.84362 9.96246 8.50049 7.01693 8.50049C4.07141 8.50049 1.68359 9.84362 1.68359 11.5005Z" fill="#1C274C"/>
</svg>
